<?xml version="1.0" encoding="UTF-8"?>
<svg version="1.1" xmlns="http://www.w3.org/2000/svg" width="2000" height="2000">
<path d="M0 0 C660 0 1320 0 2000 0 C2000 660 2000 1320 2000 2000 C1340 2000 680 2000 0 2000 C0 1340 0 680 0 0 Z " fill="#111111" transform="translate(0,0)"/>
<path d="M0 0 C2.29605568 -0.0030246 4.59211036 -0.00691563 6.88816327 -0.01159257 C13.16617274 -0.02184203 19.4441249 -0.01969849 25.722139 -0.01541197 C31.80791841 -0.01319346 37.89368076 -0.02036492 43.97945554 -0.02717223 C57.95689203 -0.04237808 71.93431035 -0.04412065 85.91175339 -0.0416492 C96.71304399 -0.0398129 107.51432866 -0.04158321 118.31561852 -0.04587364 C119.87027753 -0.04647606 121.42493655 -0.04707726 122.97959557 -0.04767724 C125.32269379 -0.04858456 127.66579201 -0.04949323 130.00889023 -0.0504096 C151.78414473 -0.05883461 173.559397 -0.06317813 195.3346529 -0.05900288 C196.56493806 -0.05876831 196.56493806 -0.05876831 197.82007746 -0.05852901 C201.97660254 -0.05772329 206.13312761 -0.05687752 210.28965268 -0.05601571 C211.11506679 -0.05584462 211.94048089 -0.05567353 212.79090755 -0.05549726 C214.4600962 -0.0551506 216.12928484 -0.05480207 217.79847349 -0.05445167 C243.74783917 -0.04909926 269.69717082 -0.05701309 295.64653015 -0.07548523 C324.8412468 -0.09624353 354.03594238 -0.10692034 383.23066682 -0.10290974 C386.34944832 -0.10251444 389.46822983 -0.10215289 392.58701134 -0.10181236 C393.3548588 -0.10172163 394.12270627 -0.1016309 394.91382184 -0.10153742 C406.46171485 -0.10037565 418.00958646 -0.10698778 429.55747414 -0.11762428 C442.70890055 -0.12972586 455.86028011 -0.13117884 469.01170728 -0.11883412 C475.71262353 -0.11282423 482.41343727 -0.11177792 489.11435318 -0.12383652 C495.26659589 -0.13477829 501.41867195 -0.13149453 507.57090714 -0.11757483 C509.77884747 -0.11495046 511.98680122 -0.11722194 514.19472829 -0.1253107 C536.52087112 -0.20132695 558.4725118 1.98193441 580.18730164 7.26069641 C581.39386414 7.54557922 582.60042664 7.83046204 583.84355164 8.12397766 C627.76892076 19.15390995 691.16988851 41.40895232 723.18730164 75.26069641 C724.83571914 76.63701936 726.50318539 77.99079347 728.18730164 79.32319641 C771.67737047 114.61863585 798.6512323 164.93299056 810.31230164 219.26069641 C810.55432312 220.36832336 810.7963446 221.47595032 811.04570007 222.61714172 C815.62979169 244.87105148 816.63781738 267.06387256 816.57947564 289.70970643 C816.57256894 293.69273637 816.58322264 297.67573018 816.59141541 301.65875244 C816.60463314 309.42454444 816.60192919 317.1902486 816.59317748 324.95604379 C816.5863541 331.27675815 816.58550411 337.5974482 816.58874893 343.91816521 C816.58920863 344.82371782 816.58966833 345.72927043 816.59014196 346.66226403 C816.5911013 348.50285813 816.59207394 350.34345223 816.59305973 352.18404632 C816.60157845 369.3721266 816.59183484 386.56015858 816.57565863 403.74823093 C816.56225639 418.44292129 816.56458965 433.13754053 816.57841492 447.83222961 C816.59452936 464.96765018 816.60075719 482.10302862 816.59157813 499.23845571 C816.59062265 501.07131826 816.58967953 502.90418082 816.58874893 504.73704338 C816.58828611 505.63844799 816.58782328 506.53985259 816.58734643 507.46857249 C816.58477423 513.76994278 816.58908889 520.07128596 816.59618759 526.37265205 C816.60466827 534.06864345 816.60218626 541.76454326 816.58634536 549.46052439 C816.57855016 553.37451253 816.57521799 557.28834891 816.58529282 561.20233536 C816.62673686 578.75438427 815.95960002 595.8974007 813.18730164 613.26069641 C813.01198131 614.37650894 813.01198131 614.37650894 812.83311915 615.51486313 C812.20355726 619.48565455 811.50741249 623.43736646 810.74980164 627.38569641 C810.42568298 629.09426819 810.42568298 629.09426819 810.09501648 630.83735657 C808.54561512 638.81763119 806.72894713 646.53201931 804.18730164 654.26069641 C803.67894504 655.88292184 803.17118278 657.50533358 802.66386414 659.12788391 C791.17264746 695.30110317 772.46753523 726.93517676 746.18730164 754.26069641 C745.71792175 754.75199036 745.24854187 755.2432843 744.76493835 755.74946594 C715.76445165 785.96888729 677.10141611 805.32478658 640.63652039 824.92134094 C638.44184467 826.12149953 636.2809525 827.36421796 634.12480164 828.63179016 C631.18730164 830.26069641 631.18730164 830.26069641 629.18730164 830.26069641 C633.52193958 838.41095778 638.18106874 846.32671801 642.99980164 854.19819641 C643.74746881 855.4239424 644.49485841 856.64985774 645.24198914 857.87593079 C646.78861337 860.41352876 648.33640792 862.95040702 649.88505554 865.48677063 C653.14498901 870.82792102 656.39025323 876.17796528 659.63587952 881.52781677 C661.40234777 884.43918492 663.16988134 887.34990617 664.93730164 890.26069641 C665.64564001 891.42736002 666.35397335 892.59402668 667.06230164 893.76069641 C667.41292664 894.33819641 667.76355164 894.91569641 668.12480164 895.51069641 C671.31230169 900.76069651 671.31230169 900.76069651 672.37472534 902.51057434 C673.08330874 903.67765049 673.79189639 904.84472405 674.50048828 906.01179504 C676.26753039 908.92217557 678.03449948 911.83260038 679.80131531 914.74311829 C683.03397749 920.06819436 686.2672537 925.39289375 689.50312805 930.71601868 C696.56572112 942.33431535 703.61888039 953.95756945 710.60185242 965.62397766 C717.01229111 976.3231662 723.50292715 986.97392738 729.98173523 997.63179016 C733.19989509 1002.92615358 736.41477656 1008.22250717 739.62983704 1013.51875305 C741.39885109 1016.43281966 743.16808787 1019.34675104 744.93730164 1022.26069641 C745.64563603 1023.42736243 746.35396936 1024.5940291 747.06230164 1025.76069641 C747.41292664 1026.33819641 747.76355164 1026.91569641 748.12480164 1027.51069641 C751.31230158 1032.76069632 751.31230158 1032.76069632 752.37472534 1034.51057434 C753.08330874 1035.67765049 753.79189639 1036.84472405 754.50048828 1038.01179504 C756.26753039 1040.92217557 758.03449948 1043.83260038 759.80131531 1046.74311829 C763.03397749 1052.06819436 766.2672537 1057.39289375 769.50312805 1062.71601868 C776.56572112 1074.33431535 783.61888039 1085.95756945 790.60185242 1097.62397766 C797.01229111 1108.3231662 803.50292715 1118.97392738 809.98173523 1129.63179016 C813.9050895 1136.08630586 817.82385291 1142.54361021 821.74339294 1149.0004425 C822.80148887 1150.74346195 823.85961689 1152.48646191 824.91777039 1154.22944641 C825.26738831 1154.80533508 825.61700623 1155.38122375 825.97721863 1155.9745636 C828.15149823 1159.55567126 830.32692056 1163.13608228 832.50312805 1166.71601868 C839.56572112 1178.33431535 846.61888039 1189.95756945 853.60185242 1201.62397766 C860.01229111 1212.3231662 866.50292715 1222.97392738 872.98173523 1233.63179016 C876.9050895 1240.08630586 880.82385291 1246.54361021 884.74339294 1253.0004425 C885.80148887 1254.74346195 886.85961689 1256.48646191 887.91777039 1258.22944641 C888.26738831 1258.80533508 888.61700623 1259.38122375 888.97721863 1259.9745636 C891.88917931 1264.77065546 894.80351442 1269.56530211 897.71817017 1274.35975647 C900.90300371 1279.59948234 904.08142287 1284.84308327 907.25956726 1290.08686829 C909.04662774 1293.02909046 910.84223967 1295.96589135 912.64042664 1298.90132141 C942.2516057 1347.41624814 942.2516057 1347.41624814 935.99980164 1374.44819641 C927.26734225 1404.74779966 902.84529881 1428.49324279 876.18730164 1444.26069641 C874.52104904 1444.59609347 872.85435635 1444.92930921 871.18730164 1445.26069641 C868.76267906 1446.56428761 866.41773791 1447.90600697 864.06230164 1449.32319641 C842.86021341 1461.65304908 820.81375892 1469.0441468 796.18730164 1468.26069641 C795.3532782 1468.24264954 794.51925476 1468.22460266 793.65995789 1468.20600891 C775.08845288 1467.03015943 758.66199954 1455.08403788 746.72343445 1441.60835266 C741.75144168 1435.72638487 737.91528465 1429.86144782 734.54960632 1422.94770813 C732.14006036 1418.19511622 729.33342711 1413.68376655 726.56230164 1409.13569641 C725.22948765 1406.93174249 723.89749789 1404.72728997 722.56620789 1402.52241516 C722.21694748 1401.94471878 721.86768707 1401.3670224 721.50784302 1400.77182007 C717.12911819 1393.52269736 712.81732322 1386.23386685 708.49980164 1378.94819641 C703.41563443 1370.37359381 698.32688194 1361.80225042 693.18730164 1353.26069641 C688.04771663 1344.71913459 682.9597659 1336.14733293 677.87480164 1327.57319641 C672.1700954 1317.95419782 666.4503938 1308.34488379 660.68730164 1298.76069641 C654.50556985 1288.48029934 648.37567832 1278.1697748 642.25663757 1267.852005 C637.13593808 1259.2181732 631.99878923 1250.59498356 626.82328796 1241.99385071 C621.65613103 1233.39616443 616.54533598 1224.7650521 611.42802429 1216.13764954 C606.69997229 1208.16724141 601.96534414 1200.2012828 597.18730164 1192.26069641 C591.56081439 1182.91008723 585.99526355 1173.52359614 580.42802429 1164.13764954 C575.69997229 1156.16724141 570.96534414 1148.2012828 566.18730164 1140.26069641 C560.56081439 1130.91008723 554.99526355 1121.52359614 549.42802429 1112.13764954 C544.69997229 1104.16724141 539.96534414 1096.2012828 535.18730164 1088.26069641 C529.56081439 1078.91008723 523.99526355 1069.52359614 518.42802429 1060.13764954 C513.69997229 1052.16724141 508.96534414 1044.2012828 504.18730164 1036.26069641 C498.56081439 1026.91008723 492.99526355 1017.52359614 487.42802429 1008.13764954 C482.69997227 1000.16724138 477.96533873 992.20128607 473.18730164 984.26069641 C468.04771088 975.71913807 462.95976588 967.14733289 457.87480164 958.57319641 C452.1700954 948.95419782 446.4503938 939.34488379 440.68730164 929.76069641 C434.92420903 920.1765083 429.20458479 910.56714996 423.49980164 900.94819641 C413.87452766 884.28121246 413.87452766 884.28121246 403.68762207 867.96884155 C402.18730164 865.26069641 402.18730164 865.26069641 401.12538147 861.57325745 C399.50710676 856.77010578 397.50784413 853.088201 393.18730164 850.26069641 C383.25859591 847.49518621 372.23081453 848.43086239 362.00964451 848.66958451 C357.81451778 848.75055844 353.61958491 848.74268714 349.42381287 848.74353027 C341.47336 848.75776558 333.52556917 848.84478809 325.57602 848.96119565 C311.36396794 849.16634947 297.15072115 849.2348976 282.93742824 849.29602832 C277.9586677 849.32014397 272.98117369 849.3716146 268.00293779 849.44736159 C264.89072945 849.49177935 261.77849801 849.52000516 258.66608047 849.54512787 C257.2362599 849.56040645 255.80649191 849.58270198 254.37691116 849.61301994 C237.26563291 849.96936999 223.884364 845.20673211 211.46464539 833.49507141 C210.71312195 832.75772766 209.96159851 832.02038391 209.18730164 831.26069641 C208.6317157 830.72960266 208.07612976 830.19850891 207.50370789 829.65132141 C189.48246784 810.70215844 186.95870583 781.47465692 186.93730164 756.82319641 C186.93662689 756.12026459 186.93595215 755.41733276 186.93525696 754.69309998 C186.97472057 728.69838343 191.18694173 702.95693491 209.83964539 683.44038391 C213.670711 679.88342116 217.72242748 676.96878494 222.18730164 674.26069641 C222.94398132 673.79921204 223.70066101 673.33772766 224.48027039 672.86225891 C239.39948282 664.61545807 255.37145356 664.6817975 271.91703796 664.74653625 C274.27278093 664.7410655 276.62852033 664.73381831 278.98425293 664.72494507 C284.02811569 664.70968696 289.07177528 664.70677329 294.1156559 664.71371078 C301.42858391 664.72364186 308.74134914 664.7107298 316.0542452 664.69124623 C327.95089294 664.66001059 339.84749996 664.64491149 351.7441864 664.64155579 C352.45388325 664.6413518 353.16358011 664.64114781 353.89478292 664.64093764 C354.96057536 664.64063259 354.96057536 664.64063259 356.04789895 664.64032137 C366.11170671 664.63740377 376.17550181 664.63060098 386.23930359 664.61909485 C386.94721028 664.61828955 387.65511698 664.61748426 388.38447539 664.61665456 C400.23778793 664.60284307 412.09107831 664.58101429 423.94437045 664.55522501 C431.87214829 664.53853307 439.79986037 664.53329065 447.72765887 664.5368154 C452.67905402 664.5372557 457.6304154 664.52964002 462.58180046 664.52013969 C464.85882556 664.51748098 467.13585771 664.51816705 469.41287994 664.52264977 C486.03855023 664.55308918 502.98620805 664.40653147 519.18730164 660.19819641 C520.40631165 659.88555847 520.40631165 659.88555847 521.64994812 659.56660461 C546.49254374 652.73650677 566.44558961 637.64213202 579.18730164 615.26069641 C594.24084209 587.34566151 598.66520536 561.56831015 598.55961609 530.08564758 C598.56204979 527.51593377 598.56577469 524.94622091 598.57067871 522.37651062 C598.58007631 516.17248579 598.57364814 509.96857882 598.56141577 503.76456287 C598.5476696 496.51809456 598.54944451 489.27165305 598.5515491 482.02517501 C598.55472549 469.0868125 598.5431472 456.14850539 598.52348328 443.2101593 C598.50446519 430.69321508 598.49740259 418.17633569 598.50297546 405.65937805 C598.50904903 391.97766992 598.50882889 378.29599013 598.49748963 364.61428434 C598.49628252 363.15250703 598.49507653 361.69072972 598.49387169 360.22895241 C598.49326815 359.51000184 598.49266461 358.79105128 598.49204278 358.05031433 C598.48818374 353.01416284 598.48854931 347.97802199 598.49045753 342.94186974 C598.4928153 336.15288487 598.48416649 329.36399421 598.46839714 322.57502365 C598.46417749 320.09313485 598.46328799 317.61123766 598.46608734 315.12934685 C598.4814269 299.08915899 598.20087035 283.65601033 593.68730164 268.13569641 C593.30807556 266.8258075 593.30807556 266.8258075 592.92118835 265.48945618 C588.41661439 250.75547126 581.44016396 236.59159001 572.18730164 224.26069641 C571.54148132 223.38284485 570.89566101 222.50499329 570.23027039 221.60054016 C553.77491077 200.08199297 528.60822832 190.47688054 502.42920667 186.93753646 C494.64154163 185.96928096 486.88253034 185.97142934 479.04608154 185.98222351 C477.36671366 185.97720866 475.68734818 185.97132943 474.00798601 185.96467078 C469.43562781 185.94900058 464.86333127 185.94544733 460.29094946 185.94402218 C455.34431911 185.94030524 450.3977217 185.92513852 445.45111084 185.91140747 C436.89481011 185.88920246 428.3385212 185.87414866 419.78219795 185.86404037 C407.41140378 185.84941527 395.04065082 185.82386781 382.66988092 185.79570909 C362.59602755 185.75031053 342.52216822 185.71366713 322.44828796 185.68257141 C302.95576431 185.6523574 283.46325521 185.61799407 263.9707489 185.57807922 C262.76794354 185.57561768 261.56513818 185.57315613 260.32588417 185.57061999 C254.29137876 185.55824483 248.25687352 185.5457884 242.22236836 185.53329158 C192.21069978 185.4298277 142.19901304 185.34059026 92.18730164 185.26069641 C92.18823752 186.81994357 92.18823752 186.81994357 92.18919231 188.41069068 C92.21052553 224.00424682 92.23096759 259.59780346 92.2507782 295.19136047 C92.25117739 295.90844162 92.25157658 296.62552276 92.25198787 297.36433364 C92.29474442 374.21379805 92.33163487 451.06326263 92.35667419 527.91273499 C92.357232 529.62014271 92.3577898 531.32755043 92.35834761 533.03495816 C92.37003884 568.87541867 92.38090565 604.7158794 92.39082035 640.55634045 C92.39580185 658.56070844 92.40094174 676.56507639 92.4062314 694.56944429 C92.4070284 697.28530247 92.40782087 700.00116066 92.40861316 702.71701884 C92.42085029 744.52782581 92.43648024 786.33862813 92.46195984 828.14942932 C92.46250743 829.04811393 92.46305503 829.94679854 92.46361922 830.87271601 C92.47246849 845.36178777 92.48160301 859.85085934 92.4907754 874.33993089 C92.51719659 916.08278358 92.54150179 957.82563267 92.55186081 999.56849289 C92.55207495 1000.4272585 92.55228909 1001.28602412 92.55250972 1002.17081293 C92.55717323 1021.02472623 92.56075244 1039.87863957 92.56330557 1058.73255327 C92.56435203 1066.31922265 92.56555451 1073.905892 92.56681061 1081.49256134 C92.56694432 1082.32287902 92.56707803 1083.1531967 92.56721579 1084.00867553 C92.57159844 1110.7428044 92.58867207 1137.47690661 92.61243047 1164.21102473 C92.6363134 1191.15084606 92.64769204 1218.09064154 92.64179759 1245.03047372 C92.64098532 1248.75711885 92.64031577 1252.48376399 92.63973236 1256.21040916 C92.63961284 1256.94090879 92.63949332 1257.67140842 92.63937017 1258.4240444 C92.63785025 1269.97005608 92.64976197 1281.51601289 92.66734109 1293.06200963 C92.68436823 1304.42814526 92.68669469 1315.79419088 92.67462889 1327.16034018 C92.66859471 1333.23539019 92.66882901 1339.31025766 92.68683437 1345.38528803 C92.70311659 1350.92112739 92.70068958 1356.45664314 92.68386154 1361.99247799 C92.68102415 1363.97396922 92.68477316 1365.95548482 92.69624262 1367.93694489 C92.83845933 1394.18837034 87.95626331 1417.76529238 69.49980164 1437.44819641 C59.92375119 1446.65930591 48.51097174 1451.85245446 36.18730164 1456.26069641 C35.36101257 1456.56749329 34.53472351 1456.87429016 33.68339539 1457.19038391 C18.82090584 1462.20485864 2.929918 1462.73167974 -12.59321594 1462.59687805 C-15.50845331 1462.57312916 -18.42277803 1462.57636907 -21.33808899 1462.58296204 C-35.3241545 1462.56285373 -49.28106061 1462.03788142 -62.81269836 1458.13569641 C-63.55125061 1457.92614319 -64.28980286 1457.71658997 -65.05073547 1457.50068665 C-73.14083101 1455.06511667 -80.47002208 1451.39300974 -87.81269836 1447.26069641 C-88.67379211 1446.77858704 -89.53488586 1446.29647766 -90.42207336 1445.79975891 C-105.03951831 1436.83231928 -116.08513458 1421.68384472 -120.36540828 1405.12208324 C-123.5730896 1391.19504333 -124.38396623 1377.78749942 -124.31326962 1363.54209137 C-124.31714823 1361.31884901 -124.32277823 1359.09560915 -124.32997921 1356.87237507 C-124.34463548 1350.79714054 -124.33462311 1344.72216619 -124.32036722 1338.64694012 C-124.31041841 1332.70919135 -124.31948393 1326.77147763 -124.32788194 1320.83373306 C-124.34457946 1308.5536654 -124.34246765 1296.27366671 -124.32989502 1283.99359703 C-124.31723547 1271.55989542 -124.31334322 1259.12623645 -124.32000923 1246.69252968 C-124.32063355 1245.51181075 -124.32063355 1245.51181075 -124.32127047 1244.30723891 C-124.32299531 1241.10098845 -124.32478318 1237.89473804 -124.32665066 1234.68848766 C-124.34401476 1204.86695056 -124.34187913 1175.04544492 -124.32731438 1145.22390747 C-124.31329782 1116.48748423 -124.30627257 1087.7510752 -124.3090229 1059.01464844 C-124.30918579 1057.20853204 -124.30934782 1055.40241564 -124.30950901 1053.59629924 C-124.31016734 1046.33793003 -124.3108711 1039.07956082 -124.31163435 1031.82119161 C-124.3137458 1011.53212346 -124.31449849 991.24305538 -124.31421757 970.95398712 C-124.31420519 970.03013684 -124.31419281 969.10628656 -124.31418005 968.15444081 C-124.3136908 938.72469049 -124.30726853 909.29494457 -124.29666042 879.86519623 C-124.29631699 878.91092783 -124.29597355 877.95665944 -124.2956197 876.97347382 C-124.29002135 861.47761039 -124.28408699 845.98174709 -124.27813064 830.48588379 C-124.25453009 769.03076868 -124.24833597 707.5756784 -124.25874329 646.12055969 C-124.25939649 642.23692876 -124.26004781 638.35329783 -124.26069879 634.4696669 C-124.26085982 633.50944515 -124.26102086 632.54922339 -124.26118677 631.55990401 C-124.26296631 620.92533488 -124.26468846 610.29076574 -124.26634121 599.65619659 C-124.26649058 598.70248515 -124.26663994 597.74877371 -124.26679384 596.76616192 C-124.27465538 546.16740497 -124.26904064 495.5686502 -124.25822792 444.96989403 C-124.25667875 437.71808561 -124.25516538 430.46627718 -124.25365309 423.21446876 C-124.25308486 420.50995338 -124.25250337 417.805438 -124.25192136 415.10092263 C-124.24772214 395.33152193 -124.24552088 375.56212372 -124.24860644 355.7927227 C-124.24874505 354.90257347 -124.24888366 354.01242425 -124.24902647 353.0953008 C-124.24973684 348.61381262 -124.25048304 344.13232445 -124.25124384 339.65083627 C-124.25673694 307.23951628 -124.25258789 274.82822243 -124.23125529 242.41690814 C-124.22919308 239.22089317 -124.22717633 236.02487817 -124.22519493 232.82886314 C-124.22470398 232.04452793 -124.22421304 231.26019271 -124.22370721 230.45208976 C-124.21621084 218.05420199 -124.21869833 205.65633747 -124.22536877 193.25845008 C-124.23171786 181.05517586 -124.22727019 168.8519444 -124.21149047 156.64867832 C-124.20334272 150.12628763 -124.20015678 143.60396965 -124.21006303 137.08157748 C-124.21898593 131.13892482 -124.21392815 125.19644845 -124.1980836 119.25381171 C-124.19479036 117.12621313 -124.19642167 114.9985992 -124.20381208 112.87101091 C-124.29634008 84.08904433 -121.07913163 52.20445128 -100.23847961 30.30342102 C-87.10198695 17.42041601 -68.42632874 9.50369785 -50.81269836 5.26069641 C-49.74664368 4.9861261 -48.68058899 4.71155579 -47.58222961 4.42866516 C-31.66582726 0.49318443 -16.30558149 -0.03057657 0 0 Z " fill="#FEFEFE" transform="translate(590.8126983642578,263.7393035888672)"/>
</svg>
